<svg xmlns="http://www.w3.org/2000/svg" version="1.1" xmlns:xlink="http://www.w3.org/1999/xlink" xmlns:svgjs="http://svgjs.dev/svgjs" width="1440" height="560" preserveAspectRatio="none" viewBox="0 0 1440 560"><g mask="url(&quot;#SvgjsMask1002&quot;)" fill="none"><rect width="1440" height="560" x="0" y="0" fill="url(&quot;#SvgjsLinearGradient1003&quot;)"></rect><path d="M1440 0L1374.83 0L1440 243.22z" fill="rgba(255, 255, 255, .1)"></path><path d="M1374.83 0L1440 243.22L1440 406.58000000000004L900.8999999999999 0z" fill="rgba(255, 255, 255, .075)"></path><path d="M900.9 0L1440 406.58000000000004L1440 461.02000000000004L617.43 0z" fill="rgba(255, 255, 255, .05)"></path><path d="M617.43 0L1440 461.02000000000004L1440 461.11L252.71999999999997 0z" fill="rgba(255, 255, 255, .025)"></path><path d="M0 560L532.97 560L0 497.32z" fill="rgba(0, 0, 0, .1)"></path><path d="M0 497.32L532.97 560L1012.6 560L0 229.65999999999997z" fill="rgba(0, 0, 0, .075)"></path><path d="M0 229.65999999999997L1012.6 560L1172.3400000000001 560L0 174.05999999999997z" fill="rgba(0, 0, 0, .05)"></path><path d="M0 174.05999999999995L1172.3400000000001 560L1313.64 560L0 105.79999999999994z" fill="rgba(0, 0, 0, .025)"></path></g><defs><mask id="SvgjsMask1002"><rect width="1440" height="560" fill="#ffffff"></rect></mask><linearGradient x1="15.28%" y1="-39.29%" x2="84.72%" y2="139.29%" gradientUnits="userSpaceOnUse" id="SvgjsLinearGradient1003"><stop stop-color="#0e2a47" offset="0"></stop><stop stop-color="#00459e" offset="1"></stop></linearGradient></defs></svg>